<svg width="38" height="38" viewBox="0 0 38 38" fill="none" xmlns="http://www.w3.org/2000/svg">
<circle cx="19" cy="19" r="19" fill="currentColor"/>
<path d="M23.5174 29.3587H14.4829C11.188 29.3587 8.51758 26.675 8.51758 23.3933V14.3589C8.51758 11.064 11.2013 8.39355 14.4829 8.39355H23.5174C26.8123 8.39355 29.4827 11.0773 29.4827 14.3589V23.3933C29.4827 26.675 26.799 29.3587 23.5174 29.3587ZM14.4829 10.1872C12.1845 10.1872 10.3112 12.0605 10.3112 14.3589V23.3933C10.3112 25.6918 12.1845 27.5651 14.4829 27.5651H23.5174C25.8158 27.5651 27.6891 25.6918 27.6891 23.3933V14.3589C27.6891 12.0605 25.8158 10.1872 23.5174 10.1872H14.4829Z" fill="white"/>
<path d="M19.0003 24.2438C16.0376 24.2438 13.6328 21.839 13.6328 18.8763C13.6328 15.9135 16.0376 13.5088 19.0003 13.5088C21.9631 13.5088 24.3678 15.9135 24.3678 18.8763C24.3678 21.8258 21.9498 24.2438 19.0003 24.2438ZM19.0003 15.3024C17.0207 15.3024 15.4264 16.8967 15.4264 18.8763C15.4264 20.8559 17.034 22.4502 19.0003 22.4502C20.9666 22.4502 22.5742 20.8426 22.5742 18.8763C22.5742 16.91 20.9666 15.3024 19.0003 15.3024Z" fill="white"/>
<path d="M25.8822 13.1901C25.8822 13.9075 25.3109 14.4788 24.5934 14.4788C23.876 14.4788 23.3047 13.9075 23.3047 13.1901C23.3047 12.4727 23.876 11.9014 24.5934 11.9014C25.3109 11.9014 25.8822 12.4859 25.8822 13.1901Z" fill="white"/>
</svg>
