<svg width="38" height="38" viewBox="0 0 38 38" fill="none" xmlns="http://www.w3.org/2000/svg">
<circle cx="19" cy="19" r="19" fill="currentColor"/>
<path fill-rule="evenodd" clip-rule="evenodd" d="M29.7942 11.9097C28.9911 12.2641 28.1295 12.5047 27.2256 12.612C28.149 12.0592 28.8578 11.1813 29.1894 10.1376C28.3246 10.6514 27.3686 11.022 26.351 11.2236C25.5349 10.3555 24.3741 9.8125 23.0865 9.8125C20.6187 9.8125 18.6159 11.8154 18.6159 14.2832C18.6159 14.6343 18.6549 14.9757 18.7329 15.3009C15.0165 15.1155 11.7229 13.3338 9.51841 10.6286C9.13474 11.2886 8.91365 12.056 8.91365 12.8753C8.91365 14.4263 9.70374 15.7951 10.9035 16.5949C10.1719 16.5722 9.48264 16.3706 8.87788 16.0357C8.87788 16.0552 8.87788 16.0715 8.87788 16.091C8.87788 18.2564 10.419 20.0642 12.4642 20.4739C12.0903 20.5747 11.6936 20.6299 11.2872 20.6299C10.9978 20.6299 10.7182 20.6007 10.4451 20.5487C11.0141 22.3239 12.6658 23.618 14.6199 23.6538C13.0885 24.8535 11.1636 25.5688 9.06646 25.5688C8.70556 25.5688 8.35115 25.5461 8 25.5071C9.97686 26.7751 12.3276 27.5164 14.854 27.5164C23.0768 27.5164 27.5735 20.7047 27.5735 14.7969C27.5735 14.6018 27.5702 14.41 27.5605 14.2182C28.4351 13.5874 29.1927 12.8005 29.7909 11.9032L29.7942 11.9097Z" fill="white"/>
</svg>
