<?xml version="1.0" encoding="UTF-8"?>
<svg width="386px" height="62px" viewBox="0 0 386 62" version="1.1" xmlns="http://www.w3.org/2000/svg" xmlns:xlink="http://www.w3.org/1999/xlink">
    <!-- Generator: Sketch 54.1 (76490) - https://sketchapp.com -->
    <title>Untitled</title>
    <desc>Created with Sketch.</desc>
    <g id="Page-1" stroke="none" stroke-width="1" fill="none" fill-rule="evenodd">
        <g id="Groupon_logo" fill="#000000" fill-rule="nonzero">
            <path d="M199.6,2 L213.8,2 L213.8,38.4 C213.8,52.6 205.1,61.1 192.1,61.1 C178.9,61.1 171,53 171,38.4 L171,2 L185.3,2 L185.3,37.8 C185.3,44.3 187.4,47.7 192.2,47.7 C197.2,47.7 199.6,44.4 199.6,37.8 L199.6,2 Z M259.9,21.6 C259.9,29.1 256.5,35.3 250.7,38.9 C247,41.1 242.4,41.5 236.4,41.5 L232.3,41.5 L232.3,60.2 L218,60.2 L218,2 L237.3,2 C243.4,2 248.1,2.4 252,5.2 C257.2,8.8 259.9,14.3 259.9,21.6 Z M245.5,21.8 C245.5,17 242.5,15 236.2,15 L232.4,15 L232.4,28.8 L235,28.8 C242,28.9 245.5,27.1 245.5,21.8 Z M358.6,34.4 L337.2,2 L324.4,2 L324.4,60.2 L338.6,60.2 L338.6,27.8 L360.3,60.2 L372.8,60.2 L372.8,2 L358.6,2 L358.6,34.4 L358.6,34.4 Z M158.4,9.6 C164.3,15.4 167.4,22.8 167.4,30.8 C167.4,39.1 164.5,46.6 159,52.2 C153.4,58.1 145.7,61.3 137.6,61.3 C129,61.3 121.6,58.2 115.9,52.1 C110.4,46.3 107.6,39.1 107.6,30.5 C107.6,22.5 110.7,15.1 116.4,9.5 C122.1,3.9 129.3,1 137.6,1 C145.4,1 152.8,4 158.4,9.6 Z M152.7,30.7 C152.7,22.2 145.9,15.4 137.7,15.4 C129,15.4 122.2,22.2 122.2,30.7 C122.2,39.9 129.5,46.9 137.5,46.9 C145.9,46.9 152.7,40.2 152.7,30.7 Z M312.6,9.6 C318.5,15.4 321.6,22.8 321.6,30.8 C321.6,39.1 318.7,46.6 313.2,52.2 C307.6,58.1 299.9,61.3 291.8,61.3 C283.2,61.3 275.9,58.2 270.1,52.1 C264.6,46.3 261.8,39.1 261.8,30.5 C261.8,22.5 264.9,15.1 270.6,9.5 C276.3,3.9 283.5,1 291.8,1 C299.5,1 306.9,4 312.6,9.6 Z M306.9,30.7 C306.9,22.2 300.1,15.4 291.9,15.4 C283.2,15.4 276.4,22.2 276.4,30.7 C276.4,39.9 283.7,46.9 291.7,46.9 C300,46.9 306.8,40.2 306.9,30.7 Z M26.6,27.5 L26.6,39.1 L43.2,39.1 C40.3,44.2 35.5,47 30.1,47 C22.1,47 14.9,39.9 14.9,30.6 C14.9,22.2 21.6,15.3 30.1,15.3 C34.7,15.3 38.4,17.2 42.1,20.9 L58.3,20.9 C53.6,8.5 42.8,0.8 30.3,0.8 C22,0.8 14.8,3.7 9.1,9.4 C3.4,15 0.3,22.4 0.3,30.4 C0.3,39 3.1,46.2 8.5,52 C14.2,58.1 21.5,61.2 30.1,61.2 C40,61.2 49.3,56.3 54.9,48.2 C58.3,43.3 59.9,37.7 59.9,31.2 C59.9,30 59.8,28.7 59.7,27.3 L26.6,27.3 L26.6,27.5 Z M92.2,40.2 L106.4,60.2 L88.9,60.2 L77.8,41.5 L77.8,60.2 L63.5,60.2 L63.5,2 L82.8,2 C88.9,2 93.6,2.4 97.5,5.2 C102.7,8.8 105.4,14.3 105.4,21.5 C105.4,30.9 100.5,37.9 92.2,40.2 Z M91,21.8 C91,17 88,15 81.7,15 L77.8,15 L77.8,28.8 L80.6,28.8 C87.6,28.9 91,27.1 91,21.8 Z M385.7,5 C385.7,6.2 385.3,7.2 384.4,8.1 C383.6,9 382.5,9.4 381.3,9.4 C380.1,9.4 379.1,9 378.2,8.1 C377.4,7.3 376.9,6.2 376.9,5 C376.9,3.8 377.3,2.8 378.2,1.9 C379,1.1 380.1,0.6 381.3,0.6 C382.5,0.6 383.6,1 384.4,1.9 C385.2,2.8 385.7,3.8 385.7,5 Z M385.1,5 C385.1,4 384.7,3.1 384,2.3 C383.3,1.6 382.4,1.2 381.3,1.2 C380.3,1.2 379.4,1.6 378.6,2.3 C377.9,3 377.5,3.9 377.5,5 C377.5,6.1 377.9,6.9 378.6,7.7 C379.3,8.4 380.2,8.8 381.3,8.8 C382.4,8.8 383.2,8.4 384,7.7 C384.7,7 385.1,6.1 385.1,5 Z M382.8,4.9 C382.6,5 382.4,5.1 382.1,5.1 C382.5,5.2 382.7,5.3 382.9,5.6 C383.1,5.9 383.2,6.1 383.2,6.3 L383.2,6.7 C383.2,6.8 383.2,6.9 383.2,7.1 C383.2,7.2 383.2,7.3 383.2,7.4 L383.2,7.5 L382.4,7.5 C382.4,7.5 382.4,7.5 382.4,7.5 C382.4,7.5 382.4,7.5 382.4,7.4 L382.4,7.2 L382.4,6.8 C382.4,6.2 382.3,5.9 381.9,5.7 C381.7,5.6 381.4,5.5 381,5.5 L380.3,5.5 L380.3,7.4 L379.5,7.4 L379.5,2.6 L381.2,2.6 C381.8,2.6 382.2,2.7 382.5,2.8 C383,3 383.2,3.4 383.2,4 C383.3,4.4 383.1,4.7 382.8,4.9 Z M382.5,4 C382.5,3.6 382.4,3.4 382.2,3.3 C382,3.2 381.6,3.1 381.2,3.1 L380.5,3.1 L380.5,4.8 L381.3,4.8 C381.7,4.8 381.9,4.8 382.1,4.7 C382.3,4.7 382.5,4.4 382.5,4 Z" id="logosvg.com_1_"></path>
        </g>
    </g>
</svg>
